<?xml version="1.0" encoding="UTF-8"?>
<svg width="79px" height="22px" viewBox="0 0 79 22" version="1.1" xmlns="http://www.w3.org/2000/svg" xmlns:xlink="http://www.w3.org/1999/xlink">
    <title>Group</title>
    <g id="Page-1" stroke="none" stroke-width="1" fill="none" fill-rule="evenodd">
        <g id="Group" fill="#002856">
            <path d="M16.321,15.942 C14.891,17.472 12.856,18.431 10.602,18.431 C6.285,18.431 2.773,14.919 2.773,10.602 C2.773,6.285 6.285,2.773 10.602,2.773 C12.992,2.773 15.134,3.85 16.572,5.544 C17.113,4.783 17.765,4.109 18.504,3.543 C16.561,1.37 13.739,2.66453526e-14 10.602,2.66453526e-14 C4.756,2.66453526e-14 -2.84217094e-14,4.756 -2.84217094e-14,10.602 C-2.84217094e-14,16.448 4.756,21.204 10.602,21.204 C13.556,21.204 16.231,19.988 18.156,18.032 C17.445,17.432 16.826,16.728 16.321,15.942" id="Fill-10"></path>
            <path d="M24.1514,18.2643 C20.1064,18.2643 16.8154,14.9723 16.8154,10.9283 C16.8154,6.8833 20.1064,3.5923 24.1514,3.5923 C28.1964,3.5923 31.4874,6.8833 31.4874,10.9283 C31.4874,14.9723 28.1964,18.2643 24.1514,18.2643 M24.1514,6.3653 C21.6354,6.3653 19.5884,8.4123 19.5884,10.9283 C19.5884,13.4443 21.6354,15.4913 24.1514,15.4913 C26.6674,15.4913 28.7144,13.4443 28.7144,10.9283 C28.7144,8.4123 26.6674,6.3653 24.1514,6.3653" id="Fill-11"></path>
            <path d="M55.2997,3.5919 C51.2547,3.5919 47.9637,6.8829 47.9637,10.9279 C47.9637,14.9729 51.2547,18.2639 55.2997,18.2639 C57.0237,18.2639 58.6097,17.6659 59.8627,16.6679 L59.8627,18.2079 L62.6357,18.2079 L62.6357,10.9279 C62.6357,6.8829 59.3447,3.5919 55.2997,3.5919 M55.2997,15.4909 C52.7837,15.4909 50.7367,13.4449 50.7367,10.9279 C50.7367,8.4119 52.7837,6.3649 55.2997,6.3649 C57.8157,6.3649 59.8627,8.4119 59.8627,10.9279 C59.8627,13.4449 57.8157,15.4909 55.2997,15.4909" id="Fill-12"></path>
            <path d="M39.6865,3.5919 C35.6415,3.5919 32.3505,6.8829 32.3505,10.9279 L32.3505,10.9309 L32.3735,21.2879 L35.1465,21.2819 L35.1365,16.6779 C36.3875,17.6709 37.9695,18.2639 39.6865,18.2639 C43.7315,18.2639 47.0225,14.9729 47.0225,10.9279 C47.0225,6.8829 43.7315,3.5919 39.6865,3.5919 M39.6865,15.4909 C37.1705,15.4909 35.1235,13.4449 35.1235,10.9279 L35.1235,10.9279 C35.1235,8.4119 37.1705,6.3649 39.6865,6.3649 C42.2025,6.3649 44.2495,8.4119 44.2495,10.9279 C44.2495,13.4449 42.2025,15.4909 39.6865,15.4909" id="Fill-13"></path>
            <path d="M71.2223,3.5919 C67.1773,3.5919 63.8863,6.8829 63.8863,10.9279 L63.8863,18.2079 L66.6593,18.2079 L66.6593,10.9279 C66.6593,8.4119 68.7063,6.3649 71.2223,6.3649 C73.7383,6.3649 75.7853,8.4119 75.7853,10.9279 L75.7853,18.1859 L78.5583,18.1859 L78.5583,10.9279 C78.5583,6.8829 75.2673,3.5919 71.2223,3.5919" id="Fill-14"></path>
        </g>
    </g>
</svg>